# xmcd
#
# Track frame offsets: 
#        150
#        13545
#        59900
#        67875
#        126540
#        183320
#        224375
#
# Disc length: 3098 seconds
#
# Revision: 3
# Processed by: cddbd v1.5.2PL0 Copyright (c) Steve Scherf et al.
# Submitted via: ExactAudioCopy v0.99pb4
#
DISCID=6a0c1807
DTITLE=Boris Grebenshikov and Gabrielle Roth and The Mirrors - Refuge (При
DTITLE=бежище)
DYEAR=1998
DGENRE=New Age
TTITLE0=Refuge (Молитва Прибежища)
TTITLE1=Chen Rezi (Мантра Ченрези)
TTITLE2=Seven Line Prayer (Семистрочная молитва)
TTITLE3=Vajra Guru (Ваджра Гуру мантра)
TTITLE4=Vajrakilaya (Мантра Ваджракилайи)
TTITLE5=Tara Mantra (Мантра Тары)
TTITLE6=Final Dedication (Посвящение)
EXTD=Take the world beat percussion and music of\nGabrielle Roth and The
EXTD=Mirrors\n\nAdd Tibetan Buddhist chants\nsung by legendary Russia
EXTD=n rocker\nBoris Grebenshikov\n
EXTT0=
EXTT1=
EXTT2=
EXTT3=
EXTT4=
EXTT5=
EXTT6=
PLAYORDER=
